# xmcd
#
# Track frame offsets:
# 150
# 19579
# 38423
# 61012
# 83116
# 101890
# 120433
# 139181
# 160411
# 185624
# 199286
# 224374
# 249283
# 275377
# 299648
#
# Disc length: 4388 seconds
#
# Revision: 1
# Processed by: cddbd v1.5.2PL0 Copyright (c) Steve Scherf et al.
# Submitted via: CedeCatalogueitor 2.6.0.6 http://personales.ya.com/cdcatalogueitor
#
DISCID=d711220f
DTITLE=Mercury Rev - Beyond The Swirling Clouds
DYEAR=1900
DGENRE=
TTITLE0=Arise
TTITLE1=In A Funny Way
TTITLE2=Secret For A Song
TTITLE3=Black Forest
TTITLE4=Tonite It Shows
TTITLE5=Mirror For A Bell
TTITLE6=Vermillion
TTITLE7=My Love
TTITLE8=The Funny Bird
TTITLE9=There You Are 
TTITLE10=Holes
TTITLE11=In The Wildernness
TTITLE12=Lettle Rhymes
TTITLE13=Goddess On A Hiway
TTITLE14=The Dark Is Rising
EXTD=
EXTT0=
EXTT1=
EXTT2=
EXTT3=
EXTT4=
EXTT5=
EXTT6=
EXTT7=
EXTT8=
EXTT9=
EXTT10=
EXTT11=
EXTT12=
EXTT13=
EXTT14=
PLAYORDER=
